<?xml version="1.0" encoding="UTF-8" standalone="no"?>
<!-- Created with Inkscape (http://www.inkscape.org/) -->

<svg
   xmlns:dc="http://purl.org/dc/elements/1.1/"
   xmlns:cc="http://creativecommons.org/ns#"
   xmlns:rdf="http://www.w3.org/1999/02/22-rdf-syntax-ns#"
   xmlns:svg="http://www.w3.org/2000/svg"
   xmlns="http://www.w3.org/2000/svg"
   xmlns:sodipodi="http://sodipodi.sourceforge.net/DTD/sodipodi-0.dtd"
   xmlns:inkscape="http://www.inkscape.org/namespaces/inkscape"
   width="290"
   height="52"
   id="svg2"
   version="1.1"
   inkscape:version="0.48.4 r9939"
   sodipodi:docname="stratos.svg"
   inkscape:export-filename="/var/www/dash/img/stratos.png"
   inkscape:export-xdpi="90"
   inkscape:export-ydpi="90">
  <defs
     id="defs4" />
  <sodipodi:namedview
     id="base"
     pagecolor="#ffffff"
     bordercolor="#666666"
     borderopacity="1.0"
     inkscape:pageopacity="0.0"
     inkscape:pageshadow="2"
     inkscape:zoom="4.0375797"
     inkscape:cx="151.89942"
     inkscape:cy="55.753847"
     inkscape:document-units="px"
     inkscape:current-layer="layer1"
     showgrid="false"
     inkscape:window-width="472"
     inkscape:window-height="383"
     inkscape:window-x="65"
     inkscape:window-y="24"
     inkscape:window-maximized="0" />
  <metadata
     id="metadata7">
    <rdf:RDF>
      <cc:Work
         rdf:about="">
        <dc:format>image/svg+xml</dc:format>
        <dc:type
           rdf:resource="http://purl.org/dc/dcmitype/StillImage" />
        <dc:title></dc:title>
      </cc:Work>
    </rdf:RDF>
  </metadata>
  <g
     inkscape:label="Layer 1"
     inkscape:groupmode="layer"
     id="layer1">
    <g
       style="font-size:68.66905212px;font-style:normal;font-variant:normal;font-weight:normal;font-stretch:normal;line-height:125%;letter-spacing:0px;word-spacing:0px;fill:#000000;fill-opacity:1;stroke:none;font-family:Abyssinica SIL;-inkscape-font-specification:Abyssinica SIL"
       id="text3092"
       transform="translate(2.7244041,-5.9089039e-8)">
      <path
         d="m 32.11699,36.0658 c -3.3e-5,1.743561 -0.346507,3.45358 -1.039424,5.130061 -0.670627,1.676497 -1.74358,3.17416 -3.218862,4.492995 -1.475339,1.318841 -3.364183,2.380617 -5.666538,3.185332 -2.302401,0.804715 -5.063019,1.207072 -8.281863,1.207073 -1.877682,-10e-7 -3.565348,-0.13412 -5.0630013,-0.402358 C 7.3719817,49.410664 6.0978501,49.120073 5.0249033,48.807128 3.7954721,48.427124 2.6889895,48.002414 1.705452,47.532995 l 0,-12.171321 4.3253456,0 0.9053049,7.778916 c 0.044698,0.268244 0.1788175,0.558836 0.4023577,0.871775 0.2458767,0.31295 0.4917618,0.525305 0.7376558,0.637067 0.044697,0.02236 0.2346994,0.122946 0.5700068,0.301768 0.3352882,0.156476 0.7935285,0.335302 1.3747222,0.536477 0.581172,0.178829 1.285297,0.346478 2.112378,0.502947 0.849408,0.156475 1.810595,0.234712 2.883564,0.234709 1.452941,3e-6 2.794132,-0.178823 4.023577,-0.536477 1.251758,-0.380001 2.324711,-0.916478 3.218862,-1.609431 0.894104,-0.692944 1.587053,-1.542365 2.078848,-2.548266 0.514098,-1.005886 0.77116,-2.145898 0.771186,-3.42004 -2.6e-5,-1.385887 -0.402384,-2.592959 -1.207073,-3.62122 C 23.1198,33.439314 22.125084,32.511657 20.918034,31.706925 19.733293,30.879874 18.436808,30.142219 17.028575,29.493957 15.620307,28.845734 14.290292,28.219845 13.038528,27.616288 11.630263,26.945714 10.277896,26.252765 8.9814209,25.53744 7.7072794,24.822161 6.5784436,23.995093 5.5949101,23.056234 4.6337165,22.117426 3.8625317,21.02212 3.2813531,19.770312 2.7225192,18.49621 2.4431044,16.98737 2.4431079,15.243788 2.4431044,13.209682 2.8454618,11.365544 3.650181,9.711369 4.4548911,8.0572726 5.5613737,6.649022 6.9696323,5.4866129 8.4002282,4.3019376 10.076717,3.3966336 11.999104,2.7706982 c 1.944714,-0.6481961 4.045913,-0.9723173 6.303604,-0.9723645 1.296466,4.72e-5 2.514714,0.078283 3.65475,0.2347087 1.162342,0.1565192 2.235295,0.3576979 3.218861,0.6035366 1.005868,0.2235781 1.933525,0.4694632 2.782975,0.7376558 0.871745,0.2682838 1.687636,0.5253454 2.447676,0.7711856 l 0,10.6960096 -3.922988,0 -1.039424,-6.5718429 C 25.399825,8.046096 25.265706,7.8225642 25.0422,7.5989909 24.840996,7.3755005 24.639817,7.2078516 24.438664,7.0960438 24.393932,7.0737325 24.248636,6.9731431 24.002776,6.7942755 23.756866,6.6154922 23.388039,6.4366667 22.896292,6.2577985 22.426852,6.0790157 21.812139,5.9113669 21.052153,5.7548513 20.314476,5.5984223 19.431525,5.5201861 18.403298,5.5201427 c -1.385917,4.34e-5 -2.626519,0.2012221 -3.721809,0.6035366 -1.095322,0.4024001 -2.022979,0.9724064 -2.782975,1.7100203 -0.760021,0.7153431 -1.35238,1.5647641 -1.77708,2.5482654 -0.4023679,0.983579 -0.6035466,2.056532 -0.6035361,3.218862 -1.05e-5,1.050635 0.2011682,2.011822 0.6035361,2.883564 0.4247,0.849453 1.039412,1.642991 1.84414,2.380616 0.827055,0.715332 1.832948,1.385928 3.017683,2.011789 1.184703,0.625917 2.548247,1.229453 4.090637,1.81061 2.078826,0.782387 3.922964,1.598279 5.532419,2.447676 1.631757,0.849445 2.995301,1.799455 4.090637,2.850034 1.117629,1.05062 1.96705,2.235339 2.548265,3.55416 0.581151,1.296502 0.871742,2.805342 0.871775,4.526524"
         id="path3097"
         inkscape:connector-curvature="0" />
      <path
         d="m 57.700235,47.532995 c -0.849444,0.424712 -1.777101,0.804716 -2.782974,1.140014 -0.849441,0.290592 -1.832981,0.547653 -2.950623,0.771186 -1.117677,0.245884 -2.291219,0.368827 -3.52063,0.368827 -2.592983,0 -4.470651,-0.603536 -5.633009,-1.810609 -1.162373,-1.207071 -1.743556,-3.174152 -1.74355,-5.901247 l 0,-22.800271 -4.392405,0 0,-2.246497 4.694174,-2.212968 3.084742,-7.2759689 3.017683,0 0,8.3153929 9.690115,0 0,3.420041 -9.690115,0 0,19.179052 c -1.3e-5,1.363554 0.111753,2.52592 0.335298,3.4871 0.245872,0.938841 0.592347,1.710025 1.039424,2.313557 0.469403,0.581187 1.039409,1.005898 1.710021,1.274133 0.692933,0.268241 1.497647,0.40236 2.414146,0.402357 0.670577,3e-6 1.28529,-0.05588 1.84414,-0.167649 0.581162,-0.111763 1.084109,-0.245882 1.508841,-0.402358 0.491749,-0.178821 0.949989,-0.38 1.374722,-0.603536 l 0,2.749444"
         id="path3099"
         inkscape:connector-curvature="0" />
      <path
         d="m 81.640518,22.888585 c -0.447087,-0.514098 -0.96121,-0.949985 -1.542371,-1.307663 -0.581205,-0.379977 -1.296507,-0.569979 -2.145908,-0.570007 -1.117679,2.8e-5 -2.246515,0.380032 -3.386511,1.140014 -1.140029,0.737682 -2.302394,1.777105 -3.4871,3.118272 l 0,19.313171 c -1.3e-5,0.424715 0.134106,0.771189 0.402358,1.039424 0.268224,0.268242 0.614699,0.424714 1.039424,0.469418 l 4.526524,0.201178 0,2.682385 -17.167263,0 0,-2.615325 3.386511,-0.268238 c 0.402352,-0.0447 0.73765,-0.201176 1.005894,-0.469418 0.290586,-0.268235 0.435881,-0.614709 0.435888,-1.039424 l 0,-23.839695 -4.962412,0 0,-2.246498 8.516572,-2.615325 2.816504,0 0,6.102426 c 0.491757,-0.53645 1.084116,-1.195869 1.77708,-1.978259 0.715287,-0.804686 1.475295,-1.575871 2.280027,-2.313557 0.804698,-0.737624 1.631765,-1.363513 2.481206,-1.877669 0.871755,-0.514091 1.709999,-0.771152 2.514736,-0.771186 0.357629,3.4e-5 0.737633,0.03356 1.140013,0.100589 0.402334,0.06709 0.793515,0.156506 1.173544,0.268239 0.379979,0.08945 0.726454,0.201212 1.039424,0.335298 0.335272,0.111799 0.614687,0.223565 0.838245,0.335298 l 0,6.806552 -2.682385,0"
         id="path3101"
         inkscape:connector-curvature="0" />
      <path
         d="m 108.63202,48.974777 -0.90531,-4.057107 c -1.20709,0.916485 -2.44769,1.732376 -3.7218,2.447676 -0.55885,0.312947 -1.15121,0.614715 -1.77708,0.905305 -0.62591,0.290592 -1.27415,0.547654 -1.94473,0.771186 -0.648261,0.245885 -1.318856,0.435887 -2.011792,0.570007 -0.670609,0.134118 -1.341204,0.201178 -2.011788,0.201178 -1.25179,0 -2.425332,-0.212356 -3.52063,-0.637066 C 91.665929,48.751245 90.727095,48.136533 89.922385,47.331817 89.117666,46.527103 88.4806,45.55474 88.011186,44.414723 87.56412,43.274715 87.340588,41.97823 87.34059,40.525265 c -2e-6,-0.849413 0.07823,-1.654127 0.234709,-2.414146 0.178823,-0.759998 0.525297,-1.497653 1.039424,-2.212968 0.514119,-0.715289 1.229421,-1.397061 2.145908,-2.045318 0.938828,-0.670581 2.157076,-1.33 3.654749,-1.978259 1.520007,-0.648225 3.364145,-1.285291 5.532419,-1.911199 2.190601,-0.648224 4.783571,-1.296466 7.778911,-1.944729 l 0,-2.950624 c -2e-5,-2.302354 -0.51414,-4.001196 -1.54237,-5.096531 -1.02826,-1.11763 -2.64887,-1.67646 -4.86182,-1.67649 -1.20709,3e-5 -2.235334,0.111796 -3.084742,0.335298 -0.849434,0.223562 -1.441793,0.402387 -1.777079,0.536477 l 0,5.968306 -4.995942,0 c -0.312951,2.4e-5 -0.625896,-0.02233 -0.938835,-0.06706 -0.290597,-0.04468 -0.558835,-0.134095 -0.804715,-0.268238 -0.24589,-0.156448 -0.447069,-0.357627 -0.603537,-0.603537 -0.134123,-0.268213 -0.201183,-0.614688 -0.201179,-1.039424 -4e-6,-1.408225 0.424707,-2.615297 1.274133,-3.621219 0.849416,-1.028218 1.955898,-1.877639 3.319451,-2.548266 1.363536,-0.670564 2.894729,-1.162334 4.593584,-1.475312 1.698829,-0.312911 3.397671,-0.469383 5.096531,-0.469417 2.12353,3.4e-5 3.87826,0.257095 5.26418,0.771186 1.40823,0.514156 2.51471,1.229458 3.31945,2.145907 0.82704,0.916512 1.40823,2.000641 1.74355,3.252392 0.33527,1.251806 0.50292,2.626527 0.50295,4.124167 l 0,19.246111 c -3e-5,0.424715 0.13409,0.771189 0.40236,1.039424 0.29056,0.268242 0.63703,0.424714 1.03942,0.469418 l 3.31945,0.201178 0,2.682385 -10.15953,0 m -0.90531,-18.340806 c -3.08476,0.78238 -5.53243,1.553564 -7.34302,2.313557 -1.810627,0.760024 -3.185348,1.531209 -4.12417,2.313557 -0.916492,0.760022 -1.508852,1.542383 -1.77708,2.347086 -0.245895,0.782373 -0.368837,1.598264 -0.368828,2.447677 -9e-6,0.71531 0.111757,1.419436 0.335298,2.112378 0.245875,0.670602 0.581173,1.274138 1.005894,1.810609 0.447053,0.536482 0.98353,0.972369 1.609431,1.307663 0.64823,0.312948 1.385885,0.469421 2.212968,0.469417 0.916467,4e-6 1.866477,-0.167645 2.850037,-0.502947 1.00587,-0.335294 1.92235,-0.704121 2.74944,-1.106484 0.96117,-0.469412 1.91118,-1.017065 2.85003,-1.64296 l 0,-11.869553"
         id="path3103"
         inkscape:connector-curvature="0" />
      <path
         d="m 142.86595,47.532995 c -0.84944,0.424712 -1.7771,0.804716 -2.78297,1.140014 -0.84944,0.290592 -1.83298,0.547653 -2.95062,0.771186 -1.11768,0.245884 -2.29122,0.368827 -3.52063,0.368827 -2.59299,0 -4.47065,-0.603536 -5.63301,-1.810609 -1.16238,-1.207071 -1.74356,-3.174152 -1.74355,-5.901247 l 0,-22.800271 -4.39241,0 0,-2.246497 4.69418,-2.212968 3.08474,-7.2759689 3.01768,0 0,8.3153929 9.69012,0 0,3.420041 -9.69012,0 0,19.179052 c -1e-5,1.363554 0.11175,2.52592 0.3353,3.4871 0.24587,0.938841 0.59235,1.710025 1.03942,2.313557 0.46941,0.581187 1.03941,1.005898 1.71002,1.274133 0.69294,0.268241 1.49765,0.40236 2.41415,0.402357 0.67058,3e-6 1.28529,-0.05588 1.84414,-0.167649 0.58116,-0.111763 1.08411,-0.245882 1.50884,-0.402358 0.49175,-0.178821 0.94999,-0.38 1.37472,-0.603536 l 0,2.749444"
         id="path3105"
         inkscape:connector-curvature="0" />
      <path
         d="m 178.34049,32.47811 c -3e-5,2.436514 -0.39121,4.716539 -1.17354,6.840082 -0.76004,2.101209 -1.85535,3.93417 -3.28592,5.498889 -1.40828,1.542374 -3.12948,2.760622 -5.16359,3.654749 -2.01182,0.894128 -4.26949,1.341192 -6.77303,1.341192 -2.50357,0 -4.76124,-0.435887 -6.77302,-1.307662 -2.0118,-0.894127 -3.72182,-2.112376 -5.13006,-3.654749 -1.40826,-1.542366 -2.49239,-3.364151 -3.25239,-5.46536 -0.73766,-2.123543 -1.10649,-4.425921 -1.10648,-6.907141 -1e-5,-2.43648 0.38,-4.716505 1.14001,-6.840081 0.76,-2.123529 1.85531,-3.967667 3.28592,-5.532419 1.4306,-1.587047 3.15179,-2.827649 5.16359,-3.721809 2.03413,-0.894094 4.32533,-1.341158 6.87361,-1.341192 2.54825,3.4e-5 4.82827,0.458274 6.84008,1.374722 2.01176,0.916513 3.71061,2.168292 5.09654,3.755339 1.38586,1.564752 2.43646,3.408889 3.1518,5.532419 0.73762,2.101222 1.10645,4.358894 1.10648,6.773021 m -7.14185,-0.06706 c -3e-5,-1.877651 -0.19003,-3.677083 -0.57001,-5.3983 -0.35767,-1.721173 -0.9165,-3.24119 -1.67649,-4.560054 -0.76003,-1.318811 -1.71004,-2.369411 -2.85003,-3.151802 -1.14003,-0.782332 -2.48123,-1.173513 -4.02358,-1.173544 -1.58709,3.1e-5 -2.96181,0.391212 -4.12416,1.173544 -1.16238,0.782391 -2.12357,1.832991 -2.88357,3.151802 -0.73766,1.318864 -1.28532,2.838881 -1.64296,4.560054 -0.35766,1.721217 -0.53648,3.520649 -0.53648,5.3983 0,1.855331 0.17882,3.643585 0.53648,5.364769 0.38,1.721207 0.95,3.241223 1.71002,4.560055 0.76,1.318844 1.71001,2.380621 2.85004,3.185332 1.13999,0.782365 2.48118,1.173545 4.02357,1.173543 1.56471,2e-6 2.92825,-0.391178 4.09064,-1.173543 1.16234,-0.782358 2.11235,-1.832958 2.85003,-3.151802 0.75999,-1.318832 1.31882,-2.838848 1.67649,-4.560055 0.37998,-1.721184 0.56998,-3.520615 0.57001,-5.398299"
         id="path3107"
         inkscape:connector-curvature="0" />
      <path
         d="m 205.73434,39.016423 c -2e-5,1.676499 -0.30179,3.185339 -0.9053,4.526525 -0.60356,1.341196 -1.46416,2.481209 -2.5818,3.420041 -1.11768,0.916482 -2.4924,1.620607 -4.12416,2.112378 -1.6318,0.49177 -3.46476,0.737655 -5.49889,0.737655 -1.05061,0 -2.07886,-0.06706 -3.08475,-0.201178 -0.98354,-0.111767 -1.90002,-0.268239 -2.74944,-0.469418 -0.82707,-0.178825 -1.56473,-0.368827 -2.21297,-0.570007 -0.64824,-0.201178 -1.14001,-0.368827 -1.47531,-0.502947 l 0,-9.120108 3.4871,0 0.83825,5.834187 c 0.69294,0.447068 1.54236,0.882955 2.54826,1.307663 1.02824,0.40236 2.21296,0.603538 3.55416,0.603536 0.98353,2e-6 1.8553,-0.145293 2.61533,-0.435887 0.75999,-0.312942 1.39706,-0.7153 1.9112,-1.207074 0.53646,-0.491766 0.93881,-1.050595 1.20707,-1.67649 0.29057,-0.648237 0.43587,-1.318832 0.43589,-2.011789 -2e-5,-0.961179 -0.19002,-1.77707 -0.57001,-2.447676 -0.38002,-0.692939 -0.92767,-1.307651 -1.64296,-1.84414 -0.71532,-0.558817 -1.59827,-1.095294 -2.64885,-1.60943 -1.02827,-0.51411 -2.20181,-1.095293 -3.52064,-1.743551 -1.25178,-0.60352 -2.35827,-1.19588 -3.31945,-1.77708 -0.96119,-0.603519 -1.77708,-1.240584 -2.44767,-1.911199 -0.64825,-0.69293 -1.14002,-1.441761 -1.47531,-2.246497 -0.33531,-0.827047 -0.50295,-1.754704 -0.50295,-2.782974 0,-1.519993 0.26823,-2.894714 0.80471,-4.124167 0.55883,-1.229397 1.36354,-2.26882 2.41415,-3.118272 1.05059,-0.871743 2.3359,-1.542339 3.85593,-2.011789 1.54236,-0.469384 3.30826,-0.704092 5.29771,-0.704126 1.00588,3.4e-5 1.96706,0.05592 2.88356,0.167649 0.91646,0.1118 1.75471,0.245919 2.51474,0.402358 0.75999,0.156505 1.43058,0.324154 2.01179,0.502947 0.58116,0.178858 1.0394,0.346507 1.37472,0.502947 l 0,8.114214 -3.58769,0 -0.53648,-4.794763 c -0.49179,-0.379975 -1.21827,-0.737626 -2.17944,-1.072954 -0.9612,-0.335267 -1.97827,-0.502916 -3.05121,-0.502947 -1.90003,3.1e-5 -3.30828,0.435918 -4.22475,1.307663 -0.89414,0.84945 -1.34121,1.944756 -1.3412,3.285921 -1e-5,0.782388 0.12294,1.46416 0.36883,2.045319 0.26823,0.581206 0.69294,1.128859 1.27413,1.64296 0.60353,0.514146 1.38589,1.039446 2.34709,1.575901 0.98353,0.536498 2.20178,1.140034 3.65475,1.81061 1.20706,0.536496 2.31354,1.095325 3.31945,1.676491 1.00587,0.5812 1.87765,1.229442 2.61533,1.944729 0.73763,0.715317 1.30764,1.508855 1.71002,2.380616 0.42468,0.871787 0.63704,1.866504 0.63706,2.984153"
         id="path3109"
         inkscape:connector-curvature="0" />
    </g>
  </g>
</svg>
